Patient4_TMGait_0pt6_01_right_32_EMG.mot
version=1
nRows=16
nColumns=33
inDegrees=no
endheader
time	1LAddLong	2LGlutMax	3LGlutMed	4LIliopsoas	5LSemiMemb	6LBicFemLong	7LRecFem	8LVastMed	9LVastLat	10LGasMed	11LTibAnt	12lTibPost	13LPeroneusLong	14LSol	15LExtDigLong	16LFlexDigLong	17RAddLong	18RGlutMax	19RGlutMed	20RIliopsoas	21RSemiMemb	22RBicFemLong	23RRecFem	24RVastMed	25RVastLat	26RGasMed	27RTibAnt	28RTibPost	29RPeroneusLong	30RSol	31RExtDigLong	32RFlexDigLong
38.27	-0.000153	-0.17425	-0.18539	-0.007324	-0.003967	-0.021362	0.15198	0.016785	0.03891	-0.029297	0.47546	0.001526	-0.28412	0.077972	0.2002	-0.014648	-0.037079	-0.026245	-0.079498	-0.112	-0.028229	-0.022736	0.18982	-0.18784	-0.046844	0.0177	0.26596	0.01236	0.84335	-0.22003	-0.005951	-0.010376
38.271	-0.005188	-0.15457	-0.23071	0.008392	-0.006409	-0.014038	0.12314	0.016022	-0.1503	-0.081787	0.48294	0.004578	-0.48126	0.075378	0.31891	-0.005951	-0.11322	-0.073853	0.11169	-0.25803	-0.012207	0.016937	0.16373	-0.15045	-0.028534	0.031586	-0.20203	0.012512	0.96207	-0.31799	-0.002899	0.000916
38.272	0.002594	-0.11841	-0.2034	-0.024109	-0.009613	0.019836	0.12375	0.00412	-0.067444	-0.08255	0.15381	0.012512	-0.001068	0.020599	-0.49164	-0.022278	-0.16373	-0.074158	0.012512	-0.23941	0.013428	0.055237	0.09903	-0.016937	-0.023499	0.047455	-0.48309	0.014343	0.080566	-0.33096	0.005493	0.000153
38.273	0.023499	-0.085297	0.001984	-0.006104	0.00351	0.023193	0.12222	-0.005646	0.053101	-0.058746	-0.15945	0.015106	0.23789	-0.02243	-0.18845	-0.008545	-0.23712	-0.044556	-0.12726	-0.024109	0.033875	0.075073	0.061493	0.024414	-0.028381	0.059814	-1.2053	0.009613	-0.34058	-0.16205	-0.00351	-0.003967
38.274	-0.049744	-0.096436	0.059052	0.005493	0.002289	0.006104	0.036621	-0.002289	0.05661	-0.033112	-0.10559	-0.002441	0.060577	-0.099335	-0.5101	-0.01236	-0.25192	-0.036774	0.005188	0.18433	0.089722	0.11658	0.058899	0.051422	-0.020142	0.060272	-1.0034	0.010681	0.24078	0.055237	-0.002899	-0.00351
38.275	0.049744	-0.095367	0.14282	-0.006714	-0.00824	-0.001068	0.074158	-0.004272	0.082397	0.041809	0.078278	-0.002747	0.004883	-0.11063	-0.66742	-0.022125	-0.23666	-0.003052	0.071564	0.20477	0.13672	0.10605	0.015411	0.078735	-0.009308	0.046082	-0.26413	0.008698	0.23544	0.34134	-0.002136	-0.010071
38.276	0.023193	-0.093842	0.18021	0.002289	-0.005035	-0.000305	0.089264	-0.006561	0.031738	0.024261	0.012512	0.013123	-0.38711	-0.014191	-0.88592	-0.022125	-0.21271	-0.019684	0.24155	0.088959	0.13199	0.081482	0.04303	0.071564	-0.022125	0.046844	0.12207	0.008698	0.19089	0.46127	-0.000458	-0.012665
38.277	-0.067291	-0.098724	0.15091	-0.01358	-0.007629	-0.015106	0.080261	-0.001984	0.032654	0.012817	-0.014191	0.016632	0.063477	0.039825	-0.54367	-0.017548	-0.20783	0.066528	0.3363	-0.015411	0.1265	0.073547	0.014343	0.028229	-0.028687	0.056915	-0.052338	0.007629	-0.068054	0.25635	-0.004578	-0.017548
38.278	-0.003052	-0.13489	-0.005188	-0.002594	-0.013123	-0.007019	0.13672	-0.007782	0.019073	-0.035706	-0.032501	0.015411	0.27924	0.019073	-0.46402	-0.010071	-0.19775	0.044708	0.13321	-0.086365	0.1091	0.058746	0.021973	-0.00351	-0.032196	0.060272	0.020142	0.007324	-0.027161	0.14832	-0.004883	-0.009003
38.279	-0.070953	-0.16586	-0.19318	0.01709	-0.001678	-0.003815	0.17319	0.001831	-0.002747	-0.053406	-0.062714	-0.003967	-0.039063	-0.039368	-0.26016	-0.016785	-0.1561	-0.022736	0.14282	-0.11032	0.07019	0.05127	0.067596	-0.049896	-0.043335	0.058746	0.10696	0.001984	0.007935	0.18127	-0.003357	-0.012817
38.28	-0.057678	-0.18051	-0.19699	0.015411	0.001678	-0.027466	0.10132	0.003967	-0.013275	0.00412	-0.16754	-0.006256	0.001373	-0.063171	-0.006714	-0.015869	-0.10101	-0.047455	0.12283	-0.16052	0.028076	0.029297	0.03067	-0.11276	-0.045013	0.066986	0.065613	0.015564	0.048523	0.15243	-0.005493	-0.015259
38.281	0.016785	-0.11673	-0.17578	-0.005188	0	-0.033569	0.049286	-0.000763	0.056458	0.000458	-0.2095	0.004578	0.12573	-0.27283	0.13245	-0.021057	-0.076904	-0.016785	0.25787	-0.14389	0.010834	-0.004883	0.050354	-0.15976	-0.062103	0.072632	0.07431	0.010223	-0.014801	0.074921	0	-0.011902
38.282	-0.002289	-0.10086	-0.068359	0.014648	0.001831	0.01358	0.13916	-0.001068	0.075836	0.027466	-0.2385	-0.004425	-0.073853	-0.40741	0.25497	0.001678	-0.046692	-0.014801	0.4274	-0.059967	0.010681	0.004578	0.065155	-0.16647	-0.063171	0.072632	0.092621	0.010681	-0.12329	0.047302	-0.002747	-0.015869
38.283	0.00885	-0.15015	-0.026398	0.015717	0.002289	0.029755	0.159	0.005035	0.063629	0.016479	-0.056915	0.010376	-0.06958	-0.34531	0.50873	-0.005341	-0.038757	-0.018463	0.49469	0.001373	-0.012817	0.023346	0.06134	-0.12329	-0.062866	0.075989	0.063171	0.003052	-0.30533	-0.009003	-0.001984	-0.009003
38.284	0.001831	-0.12146	0.13733	0.018463	-0.00412	0.054626	0.11978	0.010834	0.060577	0.014954	0.11444	0.011139	0.84625	-0.24551	0.35431	0.000305	-0.046692	-0.04837	0.55222	0.062408	0.01358	-0.003052	0.075836	-0.069427	-0.050812	0.068359	0.066223	0.013428	-0.39139	-0.026855	-0.005188	-0.007172
38.285	0.000458	-0.11292	0.22034	0.000153	-0.007935	0.065308	0.077362	0.005951	0.056305	0.015869	0.18738	-0.001678	-0.003052	-0.10864	0.65567	-0.011139	-0.04364	-0.031281	0.18295	0.1033	-0.005493	-0.070343	0.091248	-0.062714	-0.046844	0.066681	0.019379	0.0177	-0.23773	-0.042725	-0.001221	-0.012207
